<svg width="20" height="20" viewBox="0 0 30 30" fill="none" xmlns="http://www.w3.org/2000/svg">
<path d="M16.5173 15L24.2078 5.83301C24.3367 5.68066 24.2283 5.44922 24.029 5.44922H21.6912C21.5535 5.44922 21.4216 5.51074 21.3308 5.61621L14.988 13.1777L8.64525 5.61621C8.55736 5.51074 8.42553 5.44922 8.2849 5.44922H5.94701C5.74779 5.44922 5.63939 5.68066 5.7683 5.83301L13.4587 15L5.7683 24.167C5.73942 24.2009 5.7209 24.2425 5.71492 24.2867C5.70895 24.3308 5.71577 24.3758 5.73459 24.4162C5.75341 24.4566 5.78342 24.4908 5.82108 24.5146C5.85873 24.5385 5.90244 24.551 5.94701 24.5508H8.2849C8.4226 24.5508 8.55443 24.4893 8.64525 24.3838L14.988 16.8223L21.3308 24.3838C21.4187 24.4893 21.5505 24.5508 21.6912 24.5508H24.029C24.2283 24.5508 24.3367 24.3193 24.2078 24.167L16.5173 15Z" fill="#A61D24"/>
</svg>
